<?xml version="1.0" encoding="utf-8"?>
<!-- Generator: Adobe Illustrator 27.5.0, SVG Export Plug-In . SVG Version: 6.00 Build 0)  -->
<svg version="1.1" id="Layer_1" xmlns="http://www.w3.org/2000/svg" xmlns:xlink="http://www.w3.org/1999/xlink" x="0px" y="0px"
	 viewBox="0 0 800 400" style="enable-background:new 0 0 800 400;" xml:space="preserve">
<style type="text/css">
	.st0{fill:#4E4E4E;}
</style>
<g>
	<path class="st0" d="M442.8,231.8c-14.8-5.9-22-22.7-16-37.5c3.5-8.6,10.9-15.1,19.9-17.3c-3.4-8.3-10.4-21.8-12.4-26.3
		c-2.1-4.5-6.8-31.9-7.7-37.3c-0.2-1.2-12.4,7.1-12.4,7.6c0,0.5-9.2,22.8-9.5,24c-0.4,1.2-0.2,3.7-0.2,3.7s4.1,0.5,6.5,7.7
		c2.4,7.2,9.5,33.7,9.5,33.7s-1.9,2.1-2.1,1.9c9.2,30.5,5.9,43.7,10,52.6c5.2,12.7,6.5,11,11,21.6c3.1,7.7,6.6,38.1,7.8,39.5
		c4.9,6.3,7.6,11.1,7.6,14.6c0,3.5-4.2,14-2.7,20.2c1,3.6,1.4,11.6,3,13.2c1.6,1.6,1.6,3,0.7,4.3c-0.3,0.5-0.5,1.1-0.5,1.7
		c2.8,9.5,11.5,25.9-2.8,34.5h0.4c15.8-2.4,27.3-16,27.3-32V216.1C474.1,230.7,457.4,237.7,442.8,231.8z"/>
	<path class="st0" d="M424.1,70.4v1.3c2.9,1.7,4.3,3.1,7.4,4.9c7.8,4.9,17.5,13.6,16.2,43.8c2.2,6.5,3.1,19.4,5.2,23.7
		c4.1,8.1,6.8,13.3,8,21c0,0,1.2,11.8,2.7,12.7c8.1,1.8,5.8,2.7,6.9,4c1.1,1.3,5.9,1.6,5.9,5.9c1.5,2.1,2.8,4.4,3.7,6.8V37.8
		c0-17.8-14.4-32.3-32.2-32.3h-31c4.9,1.8,7.7,3.9,9.4,7.1c4,0.4,8.8,9.3,1.3,22.6c3.3,2.2,0.7,5.4-1.7,9.3
		c-0.7,1.2-1.4,3.4-3.6,3.3c-2.8,5.9-6.2,11.7-8.8,12.1c-0.7,1-1.3,3.5-0.1,4.7C417.2,65.8,420.9,67.8,424.1,70.4z"/>
	<path class="st0" d="M480.1,215.8v0.3c0-0.1,0.1-0.2,0.1-0.3v0H480.1z"/>
	<path class="st0" d="M381,322.9h-3v0.1v19.4h2.9c2.8,0,3.5-1,3.5-4.2v-11.3C384.4,324.2,383.6,322.9,381,322.9z"/>
	<path class="st0" d="M407.2,322.2h-0.4c-0.5,7.1-1.5,19.5-1.8,23.5l-0.9,10.1h6.1l-0.9-10.1C409,341.6,407.9,329.3,407.2,322.2z"/>
	<path class="st0" d="M443.8,356.1L443.8,356.1c-5.2-4.6-1.7-6.6-1.9-8.4c-3.4-14.1-14.7-22.8-8.8-27.4c-1.4-4.7-4.3-10.5-4.2-10.5
		c-17.5-10-32.5-26.4-35-28.8c-2.5-2.4-8.3-6.8-9.3-9.4c-4.2-3.9-24.9-33.2-29.7-44.1l-8.4-1.2c-3.9-15.6-16.5-28.7-16.9-44.3
		c-0.1-5.9,2.7-18.6,3.7-21.1c1.1-2.5,5.9-6.8,5.9-6.8v-4.2c-18.3,0.5-13-1.3-16.2-8.4c-2.2-4.9-0.6-6,0.1-9.4
		c2.4-10.1,10.6-25.7,14-32.7c1.1-3.6,4.6-12.2,4.6-12.2c13.6-27.8,18.7-25.7,35-27.3l0.8-1.2c16.3-0.7,13.6-1.9,15.9-17.6
		c-2.4,1-3-4.9-3-4.9c-1.3-8.9,2.4-7.2,4.2-7.4c0.4-14.6,1.9-19.2,12.4-23.3h-55c-17.9,0-32.3,14.5-32.3,32.3v324.5
		c0,17.9,14.5,32.4,32.3,32.5h95.8C436.9,388.8,443.4,377.5,443.8,356.1z M364.8,374.3h-10l-8.7-47c0.6,10.9,0.8,19.5,0.8,28.6v18.6
		h0.1v0h-6.8v-58.8h10.8l8.7,48.1c-0.7-11.5-1.7-25.4-1.7-37.3v-10.9h6.8V374.3z M392.2,336.2c0,5.3-1.6,8-3.9,9.4
		c2.3,1.6,3.9,4.2,3.9,8.7v8.5c0,8-4.3,11.7-10.7,11.7h-11.4v0v-58.8h11.4c6.6,0,10.7,3.6,10.7,11.8V336.2z M411.6,374.4l-0.9-11.9
		h-7.1l-1,11.9h-7.9l7.1-58.8h11.2l6.8,58.8H411.6z"/>
	<path class="st0" d="M380.9,348.9H378v0V367h3c2.7,0,3.4-1.4,3.4-4.2v-9.9C384.4,349.9,383.5,348.9,380.9,348.9z"/>
</g>
</svg>
